<svg xmlns="http://www.w3.org/2000/svg" xmlns:xlink="http://www.w3.org/1999/xlink" viewBox="0,0,256,256" width="50px" height="50px" fill-rule="nonzero"><g fill="#000000" fill-rule="nonzero" stroke="none" stroke-width="none" stroke-linecap="butt" stroke-linejoin="none" stroke-miterlimit="10" stroke-dasharray="" stroke-dashoffset="0" font-family="none" font-weight="none" font-size="none" text-anchor="none" style="mix-blend-mode: normal"><path transform="scale(5.12,5.12)" d="M39,4l-1.59375,2h-26.40625c-2.80078,0 -5,2.19922 -5,5v28c0,2.80078 2.19922,5 5,5h28c2.80078,0 5,-2.19922 5,-5v-21.6875l2,-2.3125v24c0,3.89844 -3.10156,7 -7,7h-28c-3.89844,0 -7,-3.10156 -7,-7v-28c0,-3.89844 3.10156,-7 7,-7zM44.75,9.03125l-20,23.625l-0.65625,0.78125l-0.78125,-0.71875l-8.90625,-8.28125l1.375,-1.46875l8.125,7.59375l19.34375,-22.8125z" id="strokeMainSVG" stroke="#000000" stroke-width="3" stroke-linejoin="round"></path><g transform="scale(5.12,5.12)" stroke="none" stroke-width="1" stroke-linejoin="miter"><path d="M11,4c-3.89844,0 -7,3.10156 -7,7v28c0,3.89844 3.10156,7 7,7h28c3.89844,0 7,-3.10156 7,-7v-24l-2,2.3125v21.6875c0,2.80078 -2.19922,5 -5,5h-28c-2.80078,0 -5,-2.19922 -5,-5v-28c0,-2.80078 2.19922,-5 5,-5h26.40625l1.59375,-2zM43.25,7.75l-19.34375,22.8125l-8.125,-7.59375l-1.375,1.46875l8.90625,8.28125l0.78125,0.71875l0.65625,-0.78125l20,-23.625z"></path></g></g></svg>